<?xml version="1.0" encoding="UTF-8" standalone="no"?>
<!DOCTYPE svg PUBLIC "-//W3C//DTD SVG 1.1//EN" "http://www.w3.org/Graphics/SVG/1.1/DTD/svg11.dtd">
<!-- Generated by graphviz version 2.40.1 (20161225.0304)
 -->
<!-- Title: %0 Pages: 1 -->
<svg width="728pt" height="1268pt" viewBox="0.00 0.00 728.00 1268.00" xmlns="http://www.w3.org/2000/svg" xmlns:xlink="http://www.w3.org/1999/xlink">
<g id="graph0" class="graph" transform="scale(1 1) rotate(0) translate(4 1264)">
<title>%0</title>
<polygon fill="#ffffff" stroke="transparent" points="-4,4 -4,-1264 724,-1264 724,4 -4,4"/>
<!-- 0 -->
<g id="node1" class="node">
<title>0</title>
<ellipse fill="none" stroke="#000000" cx="513" cy="-1242" rx="27" ry="18"/>
<text text-anchor="middle" x="513" y="-1237.8" font-family="Times,serif" font-size="14.00" fill="#000000">E</text>
</g>
<!-- 1 -->
<g id="node2" class="node">
<title>1</title>
<ellipse fill="none" stroke="#000000" cx="477" cy="-1170" rx="27" ry="18"/>
<text text-anchor="middle" x="477" y="-1165.8" font-family="Times,serif" font-size="14.00" fill="#000000">X</text>
</g>
<!-- 0&#45;&gt;1 -->
<g id="edge24" class="edge">
<title>0-&gt;1</title>
<path fill="none" stroke="#000000" d="M504.2854,-1224.5708C500.0403,-1216.0807 494.8464,-1205.6929 490.1337,-1196.2674"/>
<polygon fill="#000000" stroke="#000000" points="493.237,-1194.6477 485.6343,-1187.2687 486.976,-1197.7782 493.237,-1194.6477"/>
</g>
<!-- 25 -->
<g id="node26" class="node">
<title>25</title>
<ellipse fill="none" stroke="#000000" cx="585" cy="-1170" rx="27" ry="18"/>
<text text-anchor="middle" x="585" y="-1165.8" font-family="Times,serif" font-size="14.00" fill="#000000">E'</text>
</g>
<!-- 0&#45;&gt;25 -->
<g id="edge81" class="edge">
<title>0-&gt;25</title>
<path fill="none" stroke="#000000" d="M528.2693,-1226.7307C538.197,-1216.803 551.3153,-1203.6847 562.4363,-1192.5637"/>
<polygon fill="#000000" stroke="#000000" points="565.1564,-1194.7933 569.7527,-1185.2473 560.2067,-1189.8436 565.1564,-1194.7933"/>
</g>
<!-- 2 -->
<g id="node3" class="node">
<title>2</title>
<ellipse fill="none" stroke="#000000" cx="405" cy="-1098" rx="27" ry="18"/>
<text text-anchor="middle" x="405" y="-1093.8" font-family="Times,serif" font-size="14.00" fill="#000000">C</text>
</g>
<!-- 1&#45;&gt;2 -->
<g id="edge21" class="edge">
<title>1-&gt;2</title>
<path fill="none" stroke="#000000" d="M461.7307,-1154.7307C451.803,-1144.803 438.6847,-1131.6847 427.5637,-1120.5637"/>
<polygon fill="#000000" stroke="#000000" points="429.7933,-1117.8436 420.2473,-1113.2473 424.8436,-1122.7933 429.7933,-1117.8436"/>
</g>
<!-- 23 -->
<g id="node24" class="node">
<title>23</title>
<ellipse fill="none" stroke="#000000" cx="477" cy="-1098" rx="27" ry="18"/>
<text text-anchor="middle" x="477" y="-1093.8" font-family="Times,serif" font-size="14.00" fill="#000000">X'</text>
</g>
<!-- 1&#45;&gt;23 -->
<g id="edge23" class="edge">
<title>1-&gt;23</title>
<path fill="none" stroke="#000000" d="M477,-1151.8314C477,-1144.131 477,-1134.9743 477,-1126.4166"/>
<polygon fill="#000000" stroke="#000000" points="480.5001,-1126.4132 477,-1116.4133 473.5001,-1126.4133 480.5001,-1126.4132"/>
</g>
<!-- 3 -->
<g id="node4" class="node">
<title>3</title>
<ellipse fill="none" stroke="#000000" cx="297" cy="-1026" rx="27" ry="18"/>
<text text-anchor="middle" x="297" y="-1021.8" font-family="Times,serif" font-size="14.00" fill="#000000">N</text>
</g>
<!-- 2&#45;&gt;3 -->
<g id="edge18" class="edge">
<title>2-&gt;3</title>
<path fill="none" stroke="#000000" d="M385.6918,-1085.1278C368.6445,-1073.763 343.5981,-1057.0654 324.4656,-1044.3104"/>
<polygon fill="#000000" stroke="#000000" points="326.4031,-1041.3956 316.1411,-1038.7607 322.5201,-1047.2199 326.4031,-1041.3956"/>
</g>
<!-- 21 -->
<g id="node22" class="node">
<title>21</title>
<ellipse fill="none" stroke="#000000" cx="405" cy="-1026" rx="27" ry="18"/>
<text text-anchor="middle" x="405" y="-1021.8" font-family="Times,serif" font-size="14.00" fill="#000000">C'</text>
</g>
<!-- 2&#45;&gt;21 -->
<g id="edge20" class="edge">
<title>2-&gt;21</title>
<path fill="none" stroke="#000000" d="M405,-1079.8314C405,-1072.131 405,-1062.9743 405,-1054.4166"/>
<polygon fill="#000000" stroke="#000000" points="408.5001,-1054.4132 405,-1044.4133 401.5001,-1054.4133 408.5001,-1054.4132"/>
</g>
<!-- 4 -->
<g id="node5" class="node">
<title>4</title>
<ellipse fill="none" stroke="#000000" cx="189" cy="-954" rx="27" ry="18"/>
<text text-anchor="middle" x="189" y="-949.8" font-family="Times,serif" font-size="14.00" fill="#000000">(</text>
</g>
<!-- 3&#45;&gt;4 -->
<g id="edge1" class="edge">
<title>3-&gt;4</title>
<path fill="none" stroke="#000000" d="M277.6918,-1013.1278C260.6445,-1001.763 235.5981,-985.0654 216.4656,-972.3104"/>
<polygon fill="#000000" stroke="#000000" points="218.4031,-969.3956 208.1411,-966.7607 214.5201,-975.2199 218.4031,-969.3956"/>
</g>
<!-- 5 -->
<g id="node6" class="node">
<title>5</title>
<ellipse fill="none" stroke="#000000" cx="261" cy="-954" rx="27" ry="18"/>
<text text-anchor="middle" x="261" y="-949.8" font-family="Times,serif" font-size="14.00" fill="#000000">E</text>
</g>
<!-- 3&#45;&gt;5 -->
<g id="edge16" class="edge">
<title>3-&gt;5</title>
<path fill="none" stroke="#000000" d="M288.2854,-1008.5708C284.0403,-1000.0807 278.8464,-989.6929 274.1337,-980.2674"/>
<polygon fill="#000000" stroke="#000000" points="277.237,-978.6477 269.6343,-971.2687 270.976,-981.7782 277.237,-978.6477"/>
</g>
<!-- 20 -->
<g id="node21" class="node">
<title>20</title>
<ellipse fill="none" stroke="#000000" cx="333" cy="-954" rx="27" ry="18"/>
<text text-anchor="middle" x="333" y="-949.8" font-family="Times,serif" font-size="14.00" fill="#000000">)</text>
</g>
<!-- 3&#45;&gt;20 -->
<g id="edge17" class="edge">
<title>3-&gt;20</title>
<path fill="none" stroke="#000000" d="M305.7146,-1008.5708C309.9597,-1000.0807 315.1536,-989.6929 319.8663,-980.2674"/>
<polygon fill="#000000" stroke="#000000" points="323.024,-981.7782 324.3657,-971.2687 316.763,-978.6477 323.024,-981.7782"/>
</g>
<!-- 6 -->
<g id="node7" class="node">
<title>6</title>
<ellipse fill="none" stroke="#000000" cx="225" cy="-882" rx="27" ry="18"/>
<text text-anchor="middle" x="225" y="-877.8" font-family="Times,serif" font-size="14.00" fill="#000000">X</text>
</g>
<!-- 5&#45;&gt;6 -->
<g id="edge13" class="edge">
<title>5-&gt;6</title>
<path fill="none" stroke="#000000" d="M252.2854,-936.5708C248.0403,-928.0807 242.8464,-917.6929 238.1337,-908.2674"/>
<polygon fill="#000000" stroke="#000000" points="241.237,-906.6477 233.6343,-899.2687 234.976,-909.7782 241.237,-906.6477"/>
</g>
<!-- 18 -->
<g id="node19" class="node">
<title>18</title>
<ellipse fill="none" stroke="#000000" cx="297" cy="-882" rx="27" ry="18"/>
<text text-anchor="middle" x="297" y="-877.8" font-family="Times,serif" font-size="14.00" fill="#000000">E'</text>
</g>
<!-- 5&#45;&gt;18 -->
<g id="edge15" class="edge">
<title>5-&gt;18</title>
<path fill="none" stroke="#000000" d="M269.7146,-936.5708C273.9597,-928.0807 279.1536,-917.6929 283.8663,-908.2674"/>
<polygon fill="#000000" stroke="#000000" points="287.024,-909.7782 288.3657,-899.2687 280.763,-906.6477 287.024,-909.7782"/>
</g>
<!-- 7 -->
<g id="node8" class="node">
<title>7</title>
<ellipse fill="none" stroke="#000000" cx="153" cy="-810" rx="27" ry="18"/>
<text text-anchor="middle" x="153" y="-805.8" font-family="Times,serif" font-size="14.00" fill="#000000">C</text>
</g>
<!-- 6&#45;&gt;7 -->
<g id="edge10" class="edge">
<title>6-&gt;7</title>
<path fill="none" stroke="#000000" d="M209.7307,-866.7307C199.803,-856.803 186.6847,-843.6847 175.5637,-832.5637"/>
<polygon fill="#000000" stroke="#000000" points="177.7933,-829.8436 168.2473,-825.2473 172.8436,-834.7933 177.7933,-829.8436"/>
</g>
<!-- 16 -->
<g id="node17" class="node">
<title>16</title>
<ellipse fill="none" stroke="#000000" cx="225" cy="-810" rx="27" ry="18"/>
<text text-anchor="middle" x="225" y="-805.8" font-family="Times,serif" font-size="14.00" fill="#000000">X'</text>
</g>
<!-- 6&#45;&gt;16 -->
<g id="edge12" class="edge">
<title>6-&gt;16</title>
<path fill="none" stroke="#000000" d="M225,-863.8314C225,-856.131 225,-846.9743 225,-838.4166"/>
<polygon fill="#000000" stroke="#000000" points="228.5001,-838.4132 225,-828.4133 221.5001,-838.4133 228.5001,-838.4132"/>
</g>
<!-- 8 -->
<g id="node9" class="node">
<title>8</title>
<ellipse fill="none" stroke="#000000" cx="63" cy="-738" rx="27" ry="18"/>
<text text-anchor="middle" x="63" y="-733.8" font-family="Times,serif" font-size="14.00" fill="#000000">N</text>
</g>
<!-- 7&#45;&gt;8 -->
<g id="edge3" class="edge">
<title>7-&gt;8</title>
<path fill="none" stroke="#000000" d="M135.6471,-796.1177C122.2003,-785.3602 103.3761,-770.3009 88.259,-758.2072"/>
<polygon fill="#000000" stroke="#000000" points="90.2948,-755.3536 80.2996,-751.8397 85.9219,-760.8197 90.2948,-755.3536"/>
</g>
<!-- 10 -->
<g id="node11" class="node">
<title>10</title>
<ellipse fill="none" stroke="#000000" cx="153" cy="-738" rx="27" ry="18"/>
<text text-anchor="middle" x="153" y="-733.8" font-family="Times,serif" font-size="14.00" fill="#000000">C'</text>
</g>
<!-- 7&#45;&gt;10 -->
<g id="edge9" class="edge">
<title>7-&gt;10</title>
<path fill="none" stroke="#000000" d="M153,-791.8314C153,-784.131 153,-774.9743 153,-766.4166"/>
<polygon fill="#000000" stroke="#000000" points="156.5001,-766.4132 153,-756.4133 149.5001,-766.4133 156.5001,-766.4132"/>
</g>
<!-- 9 -->
<g id="node10" class="node">
<title>9</title>
<ellipse fill="none" stroke="#000000" cx="27" cy="-666" rx="27" ry="18"/>
<text text-anchor="middle" x="27" y="-661.8" font-family="Times,serif" font-size="14.00" fill="#000000">n</text>
</g>
<!-- 8&#45;&gt;9 -->
<g id="edge2" class="edge">
<title>8-&gt;9</title>
<path fill="none" stroke="#000000" d="M54.2854,-720.5708C50.0403,-712.0807 44.8464,-701.6929 40.1337,-692.2674"/>
<polygon fill="#000000" stroke="#000000" points="43.237,-690.6477 35.6343,-683.2687 36.976,-693.7782 43.237,-690.6477"/>
</g>
<!-- 11 -->
<g id="node12" class="node">
<title>11</title>
<ellipse fill="none" stroke="#000000" cx="99" cy="-666" rx="27" ry="18"/>
<text text-anchor="middle" x="99" y="-661.8" font-family="Times,serif" font-size="14.00" fill="#000000">and</text>
</g>
<!-- 10&#45;&gt;11 -->
<g id="edge4" class="edge">
<title>10-&gt;11</title>
<path fill="none" stroke="#000000" d="M140.7466,-721.6621C133.8423,-712.4564 125.0823,-700.7764 117.3715,-690.4953"/>
<polygon fill="#000000" stroke="#000000" points="120.005,-688.1733 111.2049,-682.2733 114.405,-692.3733 120.005,-688.1733"/>
</g>
<!-- 12 -->
<g id="node13" class="node">
<title>12</title>
<ellipse fill="none" stroke="#000000" cx="171" cy="-666" rx="27" ry="18"/>
<text text-anchor="middle" x="171" y="-661.8" font-family="Times,serif" font-size="14.00" fill="#000000">N</text>
</g>
<!-- 10&#45;&gt;12 -->
<g id="edge6" class="edge">
<title>10-&gt;12</title>
<path fill="none" stroke="#000000" d="M157.4494,-720.2022C159.4398,-712.2406 161.8332,-702.6671 164.0511,-693.7957"/>
<polygon fill="#000000" stroke="#000000" points="167.5094,-694.3929 166.5394,-683.8425 160.7184,-692.6951 167.5094,-694.3929"/>
</g>
<!-- 14 -->
<g id="node15" class="node">
<title>14</title>
<ellipse fill="none" stroke="#000000" cx="243" cy="-666" rx="27" ry="18"/>
<text text-anchor="middle" x="243" y="-661.8" font-family="Times,serif" font-size="14.00" fill="#000000">C'</text>
</g>
<!-- 10&#45;&gt;14 -->
<g id="edge8" class="edge">
<title>10-&gt;14</title>
<path fill="none" stroke="#000000" d="M170.3529,-724.1177C183.7997,-713.3602 202.6239,-698.3009 217.741,-686.2072"/>
<polygon fill="#000000" stroke="#000000" points="220.0781,-688.8197 225.7004,-679.8397 215.7052,-683.3536 220.0781,-688.8197"/>
</g>
<!-- 13 -->
<g id="node14" class="node">
<title>13</title>
<ellipse fill="none" stroke="#000000" cx="171" cy="-594" rx="27" ry="18"/>
<text text-anchor="middle" x="171" y="-589.8" font-family="Times,serif" font-size="14.00" fill="#000000">n</text>
</g>
<!-- 12&#45;&gt;13 -->
<g id="edge5" class="edge">
<title>12-&gt;13</title>
<path fill="none" stroke="#000000" d="M171,-647.8314C171,-640.131 171,-630.9743 171,-622.4166"/>
<polygon fill="#000000" stroke="#000000" points="174.5001,-622.4132 171,-612.4133 167.5001,-622.4133 174.5001,-622.4132"/>
</g>
<!-- 15 -->
<g id="node16" class="node">
<title>15</title>
<ellipse fill="none" stroke="#000000" cx="243" cy="-594" rx="27" ry="18"/>
<text text-anchor="middle" x="243" y="-589.8" font-family="Times,serif" font-size="14.00" fill="#000000">Ɛ</text>
</g>
<!-- 14&#45;&gt;15 -->
<g id="edge7" class="edge">
<title>14-&gt;15</title>
<path fill="none" stroke="#000000" d="M243,-647.8314C243,-640.131 243,-630.9743 243,-622.4166"/>
<polygon fill="#000000" stroke="#000000" points="246.5001,-622.4132 243,-612.4133 239.5001,-622.4133 246.5001,-622.4132"/>
</g>
<!-- 17 -->
<g id="node18" class="node">
<title>17</title>
<ellipse fill="none" stroke="#000000" cx="225" cy="-738" rx="27" ry="18"/>
<text text-anchor="middle" x="225" y="-733.8" font-family="Times,serif" font-size="14.00" fill="#000000">Ɛ</text>
</g>
<!-- 16&#45;&gt;17 -->
<g id="edge11" class="edge">
<title>16-&gt;17</title>
<path fill="none" stroke="#000000" d="M225,-791.8314C225,-784.131 225,-774.9743 225,-766.4166"/>
<polygon fill="#000000" stroke="#000000" points="228.5001,-766.4132 225,-756.4133 221.5001,-766.4133 228.5001,-766.4132"/>
</g>
<!-- 19 -->
<g id="node20" class="node">
<title>19</title>
<ellipse fill="none" stroke="#000000" cx="297" cy="-810" rx="27" ry="18"/>
<text text-anchor="middle" x="297" y="-805.8" font-family="Times,serif" font-size="14.00" fill="#000000">Ɛ</text>
</g>
<!-- 18&#45;&gt;19 -->
<g id="edge14" class="edge">
<title>18-&gt;19</title>
<path fill="none" stroke="#000000" d="M297,-863.8314C297,-856.131 297,-846.9743 297,-838.4166"/>
<polygon fill="#000000" stroke="#000000" points="300.5001,-838.4132 297,-828.4133 293.5001,-838.4133 300.5001,-838.4132"/>
</g>
<!-- 22 -->
<g id="node23" class="node">
<title>22</title>
<ellipse fill="none" stroke="#000000" cx="405" cy="-954" rx="27" ry="18"/>
<text text-anchor="middle" x="405" y="-949.8" font-family="Times,serif" font-size="14.00" fill="#000000">Ɛ</text>
</g>
<!-- 21&#45;&gt;22 -->
<g id="edge19" class="edge">
<title>21-&gt;22</title>
<path fill="none" stroke="#000000" d="M405,-1007.8314C405,-1000.131 405,-990.9743 405,-982.4166"/>
<polygon fill="#000000" stroke="#000000" points="408.5001,-982.4132 405,-972.4133 401.5001,-982.4133 408.5001,-982.4132"/>
</g>
<!-- 24 -->
<g id="node25" class="node">
<title>24</title>
<ellipse fill="none" stroke="#000000" cx="477" cy="-1026" rx="27" ry="18"/>
<text text-anchor="middle" x="477" y="-1021.8" font-family="Times,serif" font-size="14.00" fill="#000000">Ɛ</text>
</g>
<!-- 23&#45;&gt;24 -->
<g id="edge22" class="edge">
<title>23-&gt;24</title>
<path fill="none" stroke="#000000" d="M477,-1079.8314C477,-1072.131 477,-1062.9743 477,-1054.4166"/>
<polygon fill="#000000" stroke="#000000" points="480.5001,-1054.4132 477,-1044.4133 473.5001,-1054.4133 480.5001,-1054.4132"/>
</g>
<!-- 26 -->
<g id="node27" class="node">
<title>26</title>
<ellipse fill="none" stroke="#000000" cx="549" cy="-1098" rx="27" ry="18"/>
<text text-anchor="middle" x="549" y="-1093.8" font-family="Times,serif" font-size="14.00" fill="#000000">or</text>
</g>
<!-- 25&#45;&gt;26 -->
<g id="edge25" class="edge">
<title>25-&gt;26</title>
<path fill="none" stroke="#000000" d="M576.2854,-1152.5708C572.0403,-1144.0807 566.8464,-1133.6929 562.1337,-1124.2674"/>
<polygon fill="#000000" stroke="#000000" points="565.237,-1122.6477 557.6343,-1115.2687 558.976,-1125.7782 565.237,-1122.6477"/>
</g>
<!-- 27 -->
<g id="node28" class="node">
<title>27</title>
<ellipse fill="none" stroke="#000000" cx="621" cy="-1098" rx="27" ry="18"/>
<text text-anchor="middle" x="621" y="-1093.8" font-family="Times,serif" font-size="14.00" fill="#000000">X</text>
</g>
<!-- 25&#45;&gt;27 -->
<g id="edge78" class="edge">
<title>25-&gt;27</title>
<path fill="none" stroke="#000000" d="M593.7146,-1152.5708C597.9597,-1144.0807 603.1536,-1133.6929 607.8663,-1124.2674"/>
<polygon fill="#000000" stroke="#000000" points="611.024,-1125.7782 612.3657,-1115.2687 604.763,-1122.6477 611.024,-1125.7782"/>
</g>
<!-- 80 -->
<g id="node81" class="node">
<title>80</title>
<ellipse fill="none" stroke="#000000" cx="693" cy="-1098" rx="27" ry="18"/>
<text text-anchor="middle" x="693" y="-1093.8" font-family="Times,serif" font-size="14.00" fill="#000000">E'</text>
</g>
<!-- 25&#45;&gt;80 -->
<g id="edge80" class="edge">
<title>25-&gt;80</title>
<path fill="none" stroke="#000000" d="M604.3082,-1157.1278C621.3555,-1145.763 646.4019,-1129.0654 665.5344,-1116.3104"/>
<polygon fill="#000000" stroke="#000000" points="667.4799,-1119.2199 673.8589,-1110.7607 663.5969,-1113.3956 667.4799,-1119.2199"/>
</g>
<!-- 28 -->
<g id="node29" class="node">
<title>28</title>
<ellipse fill="none" stroke="#000000" cx="549" cy="-1026" rx="27" ry="18"/>
<text text-anchor="middle" x="549" y="-1021.8" font-family="Times,serif" font-size="14.00" fill="#000000">C</text>
</g>
<!-- 27&#45;&gt;28 -->
<g id="edge75" class="edge">
<title>27-&gt;28</title>
<path fill="none" stroke="#000000" d="M605.7307,-1082.7307C595.803,-1072.803 582.6847,-1059.6847 571.5637,-1048.5637"/>
<polygon fill="#000000" stroke="#000000" points="573.7933,-1045.8436 564.2473,-1041.2473 568.8436,-1050.7933 573.7933,-1045.8436"/>
</g>
<!-- 78 -->
<g id="node79" class="node">
<title>78</title>
<ellipse fill="none" stroke="#000000" cx="621" cy="-1026" rx="27" ry="18"/>
<text text-anchor="middle" x="621" y="-1021.8" font-family="Times,serif" font-size="14.00" fill="#000000">X'</text>
</g>
<!-- 27&#45;&gt;78 -->
<g id="edge77" class="edge">
<title>27-&gt;78</title>
<path fill="none" stroke="#000000" d="M621,-1079.8314C621,-1072.131 621,-1062.9743 621,-1054.4166"/>
<polygon fill="#000000" stroke="#000000" points="624.5001,-1054.4132 621,-1044.4133 617.5001,-1054.4133 624.5001,-1054.4132"/>
</g>
<!-- 29 -->
<g id="node30" class="node">
<title>29</title>
<ellipse fill="none" stroke="#000000" cx="477" cy="-954" rx="27" ry="18"/>
<text text-anchor="middle" x="477" y="-949.8" font-family="Times,serif" font-size="14.00" fill="#000000">N</text>
</g>
<!-- 28&#45;&gt;29 -->
<g id="edge72" class="edge">
<title>28-&gt;29</title>
<path fill="none" stroke="#000000" d="M533.7307,-1010.7307C523.803,-1000.803 510.6847,-987.6847 499.5637,-976.5637"/>
<polygon fill="#000000" stroke="#000000" points="501.7933,-973.8436 492.2473,-969.2473 496.8436,-978.7933 501.7933,-973.8436"/>
</g>
<!-- 76 -->
<g id="node77" class="node">
<title>76</title>
<ellipse fill="none" stroke="#000000" cx="549" cy="-954" rx="27" ry="18"/>
<text text-anchor="middle" x="549" y="-949.8" font-family="Times,serif" font-size="14.00" fill="#000000">C'</text>
</g>
<!-- 28&#45;&gt;76 -->
<g id="edge74" class="edge">
<title>28-&gt;76</title>
<path fill="none" stroke="#000000" d="M549,-1007.8314C549,-1000.131 549,-990.9743 549,-982.4166"/>
<polygon fill="#000000" stroke="#000000" points="552.5001,-982.4132 549,-972.4133 545.5001,-982.4133 552.5001,-982.4132"/>
</g>
<!-- 30 -->
<g id="node31" class="node">
<title>30</title>
<ellipse fill="none" stroke="#000000" cx="405" cy="-882" rx="27" ry="18"/>
<text text-anchor="middle" x="405" y="-877.8" font-family="Times,serif" font-size="14.00" fill="#000000">not</text>
</g>
<!-- 29&#45;&gt;30 -->
<g id="edge26" class="edge">
<title>29-&gt;30</title>
<path fill="none" stroke="#000000" d="M461.7307,-938.7307C451.803,-928.803 438.6847,-915.6847 427.5637,-904.5637"/>
<polygon fill="#000000" stroke="#000000" points="429.7933,-901.8436 420.2473,-897.2473 424.8436,-906.7933 429.7933,-901.8436"/>
</g>
<!-- 31 -->
<g id="node32" class="node">
<title>31</title>
<ellipse fill="none" stroke="#000000" cx="477" cy="-882" rx="27" ry="18"/>
<text text-anchor="middle" x="477" y="-877.8" font-family="Times,serif" font-size="14.00" fill="#000000">N</text>
</g>
<!-- 29&#45;&gt;31 -->
<g id="edge71" class="edge">
<title>29-&gt;31</title>
<path fill="none" stroke="#000000" d="M477,-935.8314C477,-928.131 477,-918.9743 477,-910.4166"/>
<polygon fill="#000000" stroke="#000000" points="480.5001,-910.4132 477,-900.4133 473.5001,-910.4133 480.5001,-910.4132"/>
</g>
<!-- 32 -->
<g id="node33" class="node">
<title>32</title>
<ellipse fill="none" stroke="#000000" cx="405" cy="-810" rx="27" ry="18"/>
<text text-anchor="middle" x="405" y="-805.8" font-family="Times,serif" font-size="14.00" fill="#000000">(</text>
</g>
<!-- 31&#45;&gt;32 -->
<g id="edge27" class="edge">
<title>31-&gt;32</title>
<path fill="none" stroke="#000000" d="M461.7307,-866.7307C451.803,-856.803 438.6847,-843.6847 427.5637,-832.5637"/>
<polygon fill="#000000" stroke="#000000" points="429.7933,-829.8436 420.2473,-825.2473 424.8436,-834.7933 429.7933,-829.8436"/>
</g>
<!-- 33 -->
<g id="node34" class="node">
<title>33</title>
<ellipse fill="none" stroke="#000000" cx="477" cy="-810" rx="27" ry="18"/>
<text text-anchor="middle" x="477" y="-805.8" font-family="Times,serif" font-size="14.00" fill="#000000">E</text>
</g>
<!-- 31&#45;&gt;33 -->
<g id="edge69" class="edge">
<title>31-&gt;33</title>
<path fill="none" stroke="#000000" d="M477,-863.8314C477,-856.131 477,-846.9743 477,-838.4166"/>
<polygon fill="#000000" stroke="#000000" points="480.5001,-838.4132 477,-828.4133 473.5001,-838.4133 480.5001,-838.4132"/>
</g>
<!-- 75 -->
<g id="node76" class="node">
<title>75</title>
<ellipse fill="none" stroke="#000000" cx="549" cy="-810" rx="27" ry="18"/>
<text text-anchor="middle" x="549" y="-805.8" font-family="Times,serif" font-size="14.00" fill="#000000">)</text>
</g>
<!-- 31&#45;&gt;75 -->
<g id="edge70" class="edge">
<title>31-&gt;75</title>
<path fill="none" stroke="#000000" d="M492.2693,-866.7307C502.197,-856.803 515.3153,-843.6847 526.4363,-832.5637"/>
<polygon fill="#000000" stroke="#000000" points="529.1564,-834.7933 533.7527,-825.2473 524.2067,-829.8436 529.1564,-834.7933"/>
</g>
<!-- 34 -->
<g id="node35" class="node">
<title>34</title>
<ellipse fill="none" stroke="#000000" cx="472" cy="-738" rx="27" ry="18"/>
<text text-anchor="middle" x="472" y="-733.8" font-family="Times,serif" font-size="14.00" fill="#000000">X</text>
</g>
<!-- 33&#45;&gt;34 -->
<g id="edge66" class="edge">
<title>33-&gt;34</title>
<path fill="none" stroke="#000000" d="M475.7383,-791.8314C475.2035,-784.131 474.5677,-774.9743 473.9734,-766.4166"/>
<polygon fill="#000000" stroke="#000000" points="477.4632,-766.1467 473.2787,-756.4133 470.48,-766.6317 477.4632,-766.1467"/>
</g>
<!-- 73 -->
<g id="node74" class="node">
<title>73</title>
<ellipse fill="none" stroke="#000000" cx="544" cy="-738" rx="27" ry="18"/>
<text text-anchor="middle" x="544" y="-733.8" font-family="Times,serif" font-size="14.00" fill="#000000">E'</text>
</g>
<!-- 33&#45;&gt;73 -->
<g id="edge68" class="edge">
<title>33-&gt;73</title>
<path fill="none" stroke="#000000" d="M491.538,-794.3771C500.5812,-784.659 512.3732,-771.987 522.4864,-761.1191"/>
<polygon fill="#000000" stroke="#000000" points="525.2403,-763.2975 529.4904,-753.5924 520.1158,-758.5288 525.2403,-763.2975"/>
</g>
<!-- 35 -->
<g id="node36" class="node">
<title>35</title>
<ellipse fill="none" stroke="#000000" cx="391" cy="-666" rx="27" ry="18"/>
<text text-anchor="middle" x="391" y="-661.8" font-family="Times,serif" font-size="14.00" fill="#000000">C</text>
</g>
<!-- 34&#45;&gt;35 -->
<g id="edge32" class="edge">
<title>34-&gt;35</title>
<path fill="none" stroke="#000000" d="M455.6084,-723.4297C443.9707,-713.0851 428.1572,-699.0286 415.0881,-687.4116"/>
<polygon fill="#000000" stroke="#000000" points="417.1666,-684.5763 407.3672,-680.5486 412.516,-689.8082 417.1666,-684.5763"/>
</g>
<!-- 40 -->
<g id="node41" class="node">
<title>40</title>
<ellipse fill="none" stroke="#000000" cx="472" cy="-666" rx="27" ry="18"/>
<text text-anchor="middle" x="472" y="-661.8" font-family="Times,serif" font-size="14.00" fill="#000000">X'</text>
</g>
<!-- 34&#45;&gt;40 -->
<g id="edge65" class="edge">
<title>34-&gt;40</title>
<path fill="none" stroke="#000000" d="M472,-719.8314C472,-712.131 472,-702.9743 472,-694.4166"/>
<polygon fill="#000000" stroke="#000000" points="475.5001,-694.4132 472,-684.4133 468.5001,-694.4133 475.5001,-694.4132"/>
</g>
<!-- 36 -->
<g id="node37" class="node">
<title>36</title>
<ellipse fill="none" stroke="#000000" cx="319" cy="-594" rx="27" ry="18"/>
<text text-anchor="middle" x="319" y="-589.8" font-family="Times,serif" font-size="14.00" fill="#000000">N</text>
</g>
<!-- 35&#45;&gt;36 -->
<g id="edge29" class="edge">
<title>35-&gt;36</title>
<path fill="none" stroke="#000000" d="M375.7307,-650.7307C365.803,-640.803 352.6847,-627.6847 341.5637,-616.5637"/>
<polygon fill="#000000" stroke="#000000" points="343.7933,-613.8436 334.2473,-609.2473 338.8436,-618.7933 343.7933,-613.8436"/>
</g>
<!-- 38 -->
<g id="node39" class="node">
<title>38</title>
<ellipse fill="none" stroke="#000000" cx="391" cy="-594" rx="27" ry="18"/>
<text text-anchor="middle" x="391" y="-589.8" font-family="Times,serif" font-size="14.00" fill="#000000">C'</text>
</g>
<!-- 35&#45;&gt;38 -->
<g id="edge31" class="edge">
<title>35-&gt;38</title>
<path fill="none" stroke="#000000" d="M391,-647.8314C391,-640.131 391,-630.9743 391,-622.4166"/>
<polygon fill="#000000" stroke="#000000" points="394.5001,-622.4132 391,-612.4133 387.5001,-622.4133 394.5001,-622.4132"/>
</g>
<!-- 37 -->
<g id="node38" class="node">
<title>37</title>
<ellipse fill="none" stroke="#000000" cx="319" cy="-522" rx="27" ry="18"/>
<text text-anchor="middle" x="319" y="-517.8" font-family="Times,serif" font-size="14.00" fill="#000000">n</text>
</g>
<!-- 36&#45;&gt;37 -->
<g id="edge28" class="edge">
<title>36-&gt;37</title>
<path fill="none" stroke="#000000" d="M319,-575.8314C319,-568.131 319,-558.9743 319,-550.4166"/>
<polygon fill="#000000" stroke="#000000" points="322.5001,-550.4132 319,-540.4133 315.5001,-550.4133 322.5001,-550.4132"/>
</g>
<!-- 39 -->
<g id="node40" class="node">
<title>39</title>
<ellipse fill="none" stroke="#000000" cx="391" cy="-522" rx="27" ry="18"/>
<text text-anchor="middle" x="391" y="-517.8" font-family="Times,serif" font-size="14.00" fill="#000000">Ɛ</text>
</g>
<!-- 38&#45;&gt;39 -->
<g id="edge30" class="edge">
<title>38-&gt;39</title>
<path fill="none" stroke="#000000" d="M391,-575.8314C391,-568.131 391,-558.9743 391,-550.4166"/>
<polygon fill="#000000" stroke="#000000" points="394.5001,-550.4132 391,-540.4133 387.5001,-550.4133 394.5001,-550.4132"/>
</g>
<!-- 41 -->
<g id="node42" class="node">
<title>41</title>
<ellipse fill="none" stroke="#000000" cx="463" cy="-594" rx="27" ry="18"/>
<text text-anchor="middle" x="463" y="-589.8" font-family="Times,serif" font-size="14.00" fill="#000000">xor</text>
</g>
<!-- 40&#45;&gt;41 -->
<g id="edge33" class="edge">
<title>40-&gt;41</title>
<path fill="none" stroke="#000000" d="M469.7289,-647.8314C468.7664,-640.131 467.6218,-630.9743 466.5521,-622.4166"/>
<polygon fill="#000000" stroke="#000000" points="470.0151,-621.9019 465.3017,-612.4133 463.0691,-622.7702 470.0151,-621.9019"/>
</g>
<!-- 42 -->
<g id="node43" class="node">
<title>42</title>
<ellipse fill="none" stroke="#000000" cx="535" cy="-594" rx="27" ry="18"/>
<text text-anchor="middle" x="535" y="-589.8" font-family="Times,serif" font-size="14.00" fill="#000000">C</text>
</g>
<!-- 40&#45;&gt;42 -->
<g id="edge62" class="edge">
<title>40-&gt;42</title>
<path fill="none" stroke="#000000" d="M485.6701,-650.3771C494.1734,-640.659 505.2613,-627.987 514.7708,-617.1191"/>
<polygon fill="#000000" stroke="#000000" points="517.4056,-619.423 521.3566,-609.5924 512.1375,-614.8135 517.4056,-619.423"/>
</g>
<!-- 71 -->
<g id="node72" class="node">
<title>71</title>
<ellipse fill="none" stroke="#000000" cx="607" cy="-594" rx="27" ry="18"/>
<text text-anchor="middle" x="607" y="-589.8" font-family="Times,serif" font-size="14.00" fill="#000000">X'</text>
</g>
<!-- 40&#45;&gt;71 -->
<g id="edge64" class="edge">
<title>40-&gt;71</title>
<path fill="none" stroke="#000000" d="M493.0938,-654.75C515.5496,-642.7735 551.2866,-623.7138 576.7401,-610.1386"/>
<polygon fill="#000000" stroke="#000000" points="578.4324,-613.2028 585.6088,-605.4086 575.1382,-607.0263 578.4324,-613.2028"/>
</g>
<!-- 43 -->
<g id="node44" class="node">
<title>43</title>
<ellipse fill="none" stroke="#000000" cx="463" cy="-522" rx="27" ry="18"/>
<text text-anchor="middle" x="463" y="-517.8" font-family="Times,serif" font-size="14.00" fill="#000000">N</text>
</g>
<!-- 42&#45;&gt;43 -->
<g id="edge59" class="edge">
<title>42-&gt;43</title>
<path fill="none" stroke="#000000" d="M519.7307,-578.7307C509.803,-568.803 496.6847,-555.6847 485.5637,-544.5637"/>
<polygon fill="#000000" stroke="#000000" points="487.7933,-541.8436 478.2473,-537.2473 482.8436,-546.7933 487.7933,-541.8436"/>
</g>
<!-- 69 -->
<g id="node70" class="node">
<title>69</title>
<ellipse fill="none" stroke="#000000" cx="535" cy="-522" rx="27" ry="18"/>
<text text-anchor="middle" x="535" y="-517.8" font-family="Times,serif" font-size="14.00" fill="#000000">C'</text>
</g>
<!-- 42&#45;&gt;69 -->
<g id="edge61" class="edge">
<title>42-&gt;69</title>
<path fill="none" stroke="#000000" d="M535,-575.8314C535,-568.131 535,-558.9743 535,-550.4166"/>
<polygon fill="#000000" stroke="#000000" points="538.5001,-550.4132 535,-540.4133 531.5001,-550.4133 538.5001,-550.4132"/>
</g>
<!-- 44 -->
<g id="node45" class="node">
<title>44</title>
<ellipse fill="none" stroke="#000000" cx="355" cy="-450" rx="27" ry="18"/>
<text text-anchor="middle" x="355" y="-445.8" font-family="Times,serif" font-size="14.00" fill="#000000">(</text>
</g>
<!-- 43&#45;&gt;44 -->
<g id="edge34" class="edge">
<title>43-&gt;44</title>
<path fill="none" stroke="#000000" d="M443.6918,-509.1278C426.6445,-497.763 401.5981,-481.0654 382.4656,-468.3104"/>
<polygon fill="#000000" stroke="#000000" points="384.4031,-465.3956 374.1411,-462.7607 380.5201,-471.2199 384.4031,-465.3956"/>
</g>
<!-- 45 -->
<g id="node46" class="node">
<title>45</title>
<ellipse fill="none" stroke="#000000" cx="427" cy="-450" rx="27" ry="18"/>
<text text-anchor="middle" x="427" y="-445.8" font-family="Times,serif" font-size="14.00" fill="#000000">E</text>
</g>
<!-- 43&#45;&gt;45 -->
<g id="edge57" class="edge">
<title>43-&gt;45</title>
<path fill="none" stroke="#000000" d="M454.2854,-504.5708C450.0403,-496.0807 444.8464,-485.6929 440.1337,-476.2674"/>
<polygon fill="#000000" stroke="#000000" points="443.237,-474.6477 435.6343,-467.2687 436.976,-477.7782 443.237,-474.6477"/>
</g>
<!-- 68 -->
<g id="node69" class="node">
<title>68</title>
<ellipse fill="none" stroke="#000000" cx="499" cy="-450" rx="27" ry="18"/>
<text text-anchor="middle" x="499" y="-445.8" font-family="Times,serif" font-size="14.00" fill="#000000">)</text>
</g>
<!-- 43&#45;&gt;68 -->
<g id="edge58" class="edge">
<title>43-&gt;68</title>
<path fill="none" stroke="#000000" d="M471.7146,-504.5708C475.9597,-496.0807 481.1536,-485.6929 485.8663,-476.2674"/>
<polygon fill="#000000" stroke="#000000" points="489.024,-477.7782 490.3657,-467.2687 482.763,-474.6477 489.024,-477.7782"/>
</g>
<!-- 46 -->
<g id="node47" class="node">
<title>46</title>
<ellipse fill="none" stroke="#000000" cx="355" cy="-378" rx="27" ry="18"/>
<text text-anchor="middle" x="355" y="-373.8" font-family="Times,serif" font-size="14.00" fill="#000000">X</text>
</g>
<!-- 45&#45;&gt;46 -->
<g id="edge42" class="edge">
<title>45-&gt;46</title>
<path fill="none" stroke="#000000" d="M411.7307,-434.7307C401.803,-424.803 388.6847,-411.6847 377.5637,-400.5637"/>
<polygon fill="#000000" stroke="#000000" points="379.7933,-397.8436 370.2473,-393.2473 374.8436,-402.7933 379.7933,-397.8436"/>
</g>
<!-- 54 -->
<g id="node55" class="node">
<title>54</title>
<ellipse fill="none" stroke="#000000" cx="463" cy="-378" rx="27" ry="18"/>
<text text-anchor="middle" x="463" y="-373.8" font-family="Times,serif" font-size="14.00" fill="#000000">E'</text>
</g>
<!-- 45&#45;&gt;54 -->
<g id="edge56" class="edge">
<title>45-&gt;54</title>
<path fill="none" stroke="#000000" d="M435.7146,-432.5708C439.9597,-424.0807 445.1536,-413.6929 449.8663,-404.2674"/>
<polygon fill="#000000" stroke="#000000" points="453.024,-405.7782 454.3657,-395.2687 446.763,-402.6477 453.024,-405.7782"/>
</g>
<!-- 47 -->
<g id="node48" class="node">
<title>47</title>
<ellipse fill="none" stroke="#000000" cx="283" cy="-306" rx="27" ry="18"/>
<text text-anchor="middle" x="283" y="-301.8" font-family="Times,serif" font-size="14.00" fill="#000000">C</text>
</g>
<!-- 46&#45;&gt;47 -->
<g id="edge39" class="edge">
<title>46-&gt;47</title>
<path fill="none" stroke="#000000" d="M339.7307,-362.7307C329.803,-352.803 316.6847,-339.6847 305.5637,-328.5637"/>
<polygon fill="#000000" stroke="#000000" points="307.7933,-325.8436 298.2473,-321.2473 302.8436,-330.7933 307.7933,-325.8436"/>
</g>
<!-- 52 -->
<g id="node53" class="node">
<title>52</title>
<ellipse fill="none" stroke="#000000" cx="355" cy="-306" rx="27" ry="18"/>
<text text-anchor="middle" x="355" y="-301.8" font-family="Times,serif" font-size="14.00" fill="#000000">X'</text>
</g>
<!-- 46&#45;&gt;52 -->
<g id="edge41" class="edge">
<title>46-&gt;52</title>
<path fill="none" stroke="#000000" d="M355,-359.8314C355,-352.131 355,-342.9743 355,-334.4166"/>
<polygon fill="#000000" stroke="#000000" points="358.5001,-334.4132 355,-324.4133 351.5001,-334.4133 358.5001,-334.4132"/>
</g>
<!-- 48 -->
<g id="node49" class="node">
<title>48</title>
<ellipse fill="none" stroke="#000000" cx="211" cy="-234" rx="27" ry="18"/>
<text text-anchor="middle" x="211" y="-229.8" font-family="Times,serif" font-size="14.00" fill="#000000">N</text>
</g>
<!-- 47&#45;&gt;48 -->
<g id="edge36" class="edge">
<title>47-&gt;48</title>
<path fill="none" stroke="#000000" d="M267.7307,-290.7307C257.803,-280.803 244.6847,-267.6847 233.5637,-256.5637"/>
<polygon fill="#000000" stroke="#000000" points="235.7933,-253.8436 226.2473,-249.2473 230.8436,-258.7933 235.7933,-253.8436"/>
</g>
<!-- 50 -->
<g id="node51" class="node">
<title>50</title>
<ellipse fill="none" stroke="#000000" cx="283" cy="-234" rx="27" ry="18"/>
<text text-anchor="middle" x="283" y="-229.8" font-family="Times,serif" font-size="14.00" fill="#000000">C'</text>
</g>
<!-- 47&#45;&gt;50 -->
<g id="edge38" class="edge">
<title>47-&gt;50</title>
<path fill="none" stroke="#000000" d="M283,-287.8314C283,-280.131 283,-270.9743 283,-262.4166"/>
<polygon fill="#000000" stroke="#000000" points="286.5001,-262.4132 283,-252.4133 279.5001,-262.4133 286.5001,-262.4132"/>
</g>
<!-- 49 -->
<g id="node50" class="node">
<title>49</title>
<ellipse fill="none" stroke="#000000" cx="211" cy="-162" rx="27" ry="18"/>
<text text-anchor="middle" x="211" y="-157.8" font-family="Times,serif" font-size="14.00" fill="#000000">n</text>
</g>
<!-- 48&#45;&gt;49 -->
<g id="edge35" class="edge">
<title>48-&gt;49</title>
<path fill="none" stroke="#000000" d="M211,-215.8314C211,-208.131 211,-198.9743 211,-190.4166"/>
<polygon fill="#000000" stroke="#000000" points="214.5001,-190.4132 211,-180.4133 207.5001,-190.4133 214.5001,-190.4132"/>
</g>
<!-- 51 -->
<g id="node52" class="node">
<title>51</title>
<ellipse fill="none" stroke="#000000" cx="283" cy="-162" rx="27" ry="18"/>
<text text-anchor="middle" x="283" y="-157.8" font-family="Times,serif" font-size="14.00" fill="#000000">Ɛ</text>
</g>
<!-- 50&#45;&gt;51 -->
<g id="edge37" class="edge">
<title>50-&gt;51</title>
<path fill="none" stroke="#000000" d="M283,-215.8314C283,-208.131 283,-198.9743 283,-190.4166"/>
<polygon fill="#000000" stroke="#000000" points="286.5001,-190.4132 283,-180.4133 279.5001,-190.4133 286.5001,-190.4132"/>
</g>
<!-- 53 -->
<g id="node54" class="node">
<title>53</title>
<ellipse fill="none" stroke="#000000" cx="355" cy="-234" rx="27" ry="18"/>
<text text-anchor="middle" x="355" y="-229.8" font-family="Times,serif" font-size="14.00" fill="#000000">Ɛ</text>
</g>
<!-- 52&#45;&gt;53 -->
<g id="edge40" class="edge">
<title>52-&gt;53</title>
<path fill="none" stroke="#000000" d="M355,-287.8314C355,-280.131 355,-270.9743 355,-262.4166"/>
<polygon fill="#000000" stroke="#000000" points="358.5001,-262.4132 355,-252.4133 351.5001,-262.4133 358.5001,-262.4132"/>
</g>
<!-- 55 -->
<g id="node56" class="node">
<title>55</title>
<ellipse fill="none" stroke="#000000" cx="427" cy="-306" rx="27" ry="18"/>
<text text-anchor="middle" x="427" y="-301.8" font-family="Times,serif" font-size="14.00" fill="#000000">or</text>
</g>
<!-- 54&#45;&gt;55 -->
<g id="edge43" class="edge">
<title>54-&gt;55</title>
<path fill="none" stroke="#000000" d="M454.2854,-360.5708C450.0403,-352.0807 444.8464,-341.6929 440.1337,-332.2674"/>
<polygon fill="#000000" stroke="#000000" points="443.237,-330.6477 435.6343,-323.2687 436.976,-333.7782 443.237,-330.6477"/>
</g>
<!-- 56 -->
<g id="node57" class="node">
<title>56</title>
<ellipse fill="none" stroke="#000000" cx="499" cy="-306" rx="27" ry="18"/>
<text text-anchor="middle" x="499" y="-301.8" font-family="Times,serif" font-size="14.00" fill="#000000">X</text>
</g>
<!-- 54&#45;&gt;56 -->
<g id="edge53" class="edge">
<title>54-&gt;56</title>
<path fill="none" stroke="#000000" d="M471.7146,-360.5708C475.9597,-352.0807 481.1536,-341.6929 485.8663,-332.2674"/>
<polygon fill="#000000" stroke="#000000" points="489.024,-333.7782 490.3657,-323.2687 482.763,-330.6477 489.024,-333.7782"/>
</g>
<!-- 66 -->
<g id="node67" class="node">
<title>66</title>
<ellipse fill="none" stroke="#000000" cx="571" cy="-306" rx="27" ry="18"/>
<text text-anchor="middle" x="571" y="-301.8" font-family="Times,serif" font-size="14.00" fill="#000000">E'</text>
</g>
<!-- 54&#45;&gt;66 -->
<g id="edge55" class="edge">
<title>54-&gt;66</title>
<path fill="none" stroke="#000000" d="M482.3082,-365.1278C499.3555,-353.763 524.4019,-337.0654 543.5344,-324.3104"/>
<polygon fill="#000000" stroke="#000000" points="545.4799,-327.2199 551.8589,-318.7607 541.5969,-321.3956 545.4799,-327.2199"/>
</g>
<!-- 57 -->
<g id="node58" class="node">
<title>57</title>
<ellipse fill="none" stroke="#000000" cx="427" cy="-234" rx="27" ry="18"/>
<text text-anchor="middle" x="427" y="-229.8" font-family="Times,serif" font-size="14.00" fill="#000000">C</text>
</g>
<!-- 56&#45;&gt;57 -->
<g id="edge50" class="edge">
<title>56-&gt;57</title>
<path fill="none" stroke="#000000" d="M483.7307,-290.7307C473.803,-280.803 460.6847,-267.6847 449.5637,-256.5637"/>
<polygon fill="#000000" stroke="#000000" points="451.7933,-253.8436 442.2473,-249.2473 446.8436,-258.7933 451.7933,-253.8436"/>
</g>
<!-- 64 -->
<g id="node65" class="node">
<title>64</title>
<ellipse fill="none" stroke="#000000" cx="499" cy="-234" rx="27" ry="18"/>
<text text-anchor="middle" x="499" y="-229.8" font-family="Times,serif" font-size="14.00" fill="#000000">X'</text>
</g>
<!-- 56&#45;&gt;64 -->
<g id="edge52" class="edge">
<title>56-&gt;64</title>
<path fill="none" stroke="#000000" d="M499,-287.8314C499,-280.131 499,-270.9743 499,-262.4166"/>
<polygon fill="#000000" stroke="#000000" points="502.5001,-262.4132 499,-252.4133 495.5001,-262.4133 502.5001,-262.4132"/>
</g>
<!-- 58 -->
<g id="node59" class="node">
<title>58</title>
<ellipse fill="none" stroke="#000000" cx="355" cy="-162" rx="27" ry="18"/>
<text text-anchor="middle" x="355" y="-157.8" font-family="Times,serif" font-size="14.00" fill="#000000">N</text>
</g>
<!-- 57&#45;&gt;58 -->
<g id="edge47" class="edge">
<title>57-&gt;58</title>
<path fill="none" stroke="#000000" d="M411.7307,-218.7307C401.803,-208.803 388.6847,-195.6847 377.5637,-184.5637"/>
<polygon fill="#000000" stroke="#000000" points="379.7933,-181.8436 370.2473,-177.2473 374.8436,-186.7933 379.7933,-181.8436"/>
</g>
<!-- 62 -->
<g id="node63" class="node">
<title>62</title>
<ellipse fill="none" stroke="#000000" cx="427" cy="-162" rx="27" ry="18"/>
<text text-anchor="middle" x="427" y="-157.8" font-family="Times,serif" font-size="14.00" fill="#000000">C'</text>
</g>
<!-- 57&#45;&gt;62 -->
<g id="edge49" class="edge">
<title>57-&gt;62</title>
<path fill="none" stroke="#000000" d="M427,-215.8314C427,-208.131 427,-198.9743 427,-190.4166"/>
<polygon fill="#000000" stroke="#000000" points="430.5001,-190.4132 427,-180.4133 423.5001,-190.4133 430.5001,-190.4132"/>
</g>
<!-- 59 -->
<g id="node60" class="node">
<title>59</title>
<ellipse fill="none" stroke="#000000" cx="283" cy="-90" rx="27" ry="18"/>
<text text-anchor="middle" x="283" y="-85.8" font-family="Times,serif" font-size="14.00" fill="#000000">not</text>
</g>
<!-- 58&#45;&gt;59 -->
<g id="edge44" class="edge">
<title>58-&gt;59</title>
<path fill="none" stroke="#000000" d="M339.7307,-146.7307C329.803,-136.803 316.6847,-123.6847 305.5637,-112.5637"/>
<polygon fill="#000000" stroke="#000000" points="307.7933,-109.8436 298.2473,-105.2473 302.8436,-114.7933 307.7933,-109.8436"/>
</g>
<!-- 60 -->
<g id="node61" class="node">
<title>60</title>
<ellipse fill="none" stroke="#000000" cx="355" cy="-90" rx="27" ry="18"/>
<text text-anchor="middle" x="355" y="-85.8" font-family="Times,serif" font-size="14.00" fill="#000000">N</text>
</g>
<!-- 58&#45;&gt;60 -->
<g id="edge46" class="edge">
<title>58-&gt;60</title>
<path fill="none" stroke="#000000" d="M355,-143.8314C355,-136.131 355,-126.9743 355,-118.4166"/>
<polygon fill="#000000" stroke="#000000" points="358.5001,-118.4132 355,-108.4133 351.5001,-118.4133 358.5001,-118.4132"/>
</g>
<!-- 61 -->
<g id="node62" class="node">
<title>61</title>
<ellipse fill="none" stroke="#000000" cx="355" cy="-18" rx="27" ry="18"/>
<text text-anchor="middle" x="355" y="-13.8" font-family="Times,serif" font-size="14.00" fill="#000000">n</text>
</g>
<!-- 60&#45;&gt;61 -->
<g id="edge45" class="edge">
<title>60-&gt;61</title>
<path fill="none" stroke="#000000" d="M355,-71.8314C355,-64.131 355,-54.9743 355,-46.4166"/>
<polygon fill="#000000" stroke="#000000" points="358.5001,-46.4132 355,-36.4133 351.5001,-46.4133 358.5001,-46.4132"/>
</g>
<!-- 63 -->
<g id="node64" class="node">
<title>63</title>
<ellipse fill="none" stroke="#000000" cx="427" cy="-90" rx="27" ry="18"/>
<text text-anchor="middle" x="427" y="-85.8" font-family="Times,serif" font-size="14.00" fill="#000000">Ɛ</text>
</g>
<!-- 62&#45;&gt;63 -->
<g id="edge48" class="edge">
<title>62-&gt;63</title>
<path fill="none" stroke="#000000" d="M427,-143.8314C427,-136.131 427,-126.9743 427,-118.4166"/>
<polygon fill="#000000" stroke="#000000" points="430.5001,-118.4132 427,-108.4133 423.5001,-118.4133 430.5001,-118.4132"/>
</g>
<!-- 65 -->
<g id="node66" class="node">
<title>65</title>
<ellipse fill="none" stroke="#000000" cx="499" cy="-162" rx="27" ry="18"/>
<text text-anchor="middle" x="499" y="-157.8" font-family="Times,serif" font-size="14.00" fill="#000000">Ɛ</text>
</g>
<!-- 64&#45;&gt;65 -->
<g id="edge51" class="edge">
<title>64-&gt;65</title>
<path fill="none" stroke="#000000" d="M499,-215.8314C499,-208.131 499,-198.9743 499,-190.4166"/>
<polygon fill="#000000" stroke="#000000" points="502.5001,-190.4132 499,-180.4133 495.5001,-190.4133 502.5001,-190.4132"/>
</g>
<!-- 67 -->
<g id="node68" class="node">
<title>67</title>
<ellipse fill="none" stroke="#000000" cx="571" cy="-234" rx="27" ry="18"/>
<text text-anchor="middle" x="571" y="-229.8" font-family="Times,serif" font-size="14.00" fill="#000000">Ɛ</text>
</g>
<!-- 66&#45;&gt;67 -->
<g id="edge54" class="edge">
<title>66-&gt;67</title>
<path fill="none" stroke="#000000" d="M571,-287.8314C571,-280.131 571,-270.9743 571,-262.4166"/>
<polygon fill="#000000" stroke="#000000" points="574.5001,-262.4132 571,-252.4133 567.5001,-262.4133 574.5001,-262.4132"/>
</g>
<!-- 70 -->
<g id="node71" class="node">
<title>70</title>
<ellipse fill="none" stroke="#000000" cx="571" cy="-450" rx="27" ry="18"/>
<text text-anchor="middle" x="571" y="-445.8" font-family="Times,serif" font-size="14.00" fill="#000000">Ɛ</text>
</g>
<!-- 69&#45;&gt;70 -->
<g id="edge60" class="edge">
<title>69-&gt;70</title>
<path fill="none" stroke="#000000" d="M543.7146,-504.5708C547.9597,-496.0807 553.1536,-485.6929 557.8663,-476.2674"/>
<polygon fill="#000000" stroke="#000000" points="561.024,-477.7782 562.3657,-467.2687 554.763,-474.6477 561.024,-477.7782"/>
</g>
<!-- 72 -->
<g id="node73" class="node">
<title>72</title>
<ellipse fill="none" stroke="#000000" cx="607" cy="-522" rx="27" ry="18"/>
<text text-anchor="middle" x="607" y="-517.8" font-family="Times,serif" font-size="14.00" fill="#000000">Ɛ</text>
</g>
<!-- 71&#45;&gt;72 -->
<g id="edge63" class="edge">
<title>71-&gt;72</title>
<path fill="none" stroke="#000000" d="M607,-575.8314C607,-568.131 607,-558.9743 607,-550.4166"/>
<polygon fill="#000000" stroke="#000000" points="610.5001,-550.4132 607,-540.4133 603.5001,-550.4133 610.5001,-550.4132"/>
</g>
<!-- 74 -->
<g id="node75" class="node">
<title>74</title>
<ellipse fill="none" stroke="#000000" cx="544" cy="-666" rx="27" ry="18"/>
<text text-anchor="middle" x="544" y="-661.8" font-family="Times,serif" font-size="14.00" fill="#000000">Ɛ</text>
</g>
<!-- 73&#45;&gt;74 -->
<g id="edge67" class="edge">
<title>73-&gt;74</title>
<path fill="none" stroke="#000000" d="M544,-719.8314C544,-712.131 544,-702.9743 544,-694.4166"/>
<polygon fill="#000000" stroke="#000000" points="547.5001,-694.4132 544,-684.4133 540.5001,-694.4133 547.5001,-694.4132"/>
</g>
<!-- 77 -->
<g id="node78" class="node">
<title>77</title>
<ellipse fill="none" stroke="#000000" cx="549" cy="-882" rx="27" ry="18"/>
<text text-anchor="middle" x="549" y="-877.8" font-family="Times,serif" font-size="14.00" fill="#000000">Ɛ</text>
</g>
<!-- 76&#45;&gt;77 -->
<g id="edge73" class="edge">
<title>76-&gt;77</title>
<path fill="none" stroke="#000000" d="M549,-935.8314C549,-928.131 549,-918.9743 549,-910.4166"/>
<polygon fill="#000000" stroke="#000000" points="552.5001,-910.4132 549,-900.4133 545.5001,-910.4133 552.5001,-910.4132"/>
</g>
<!-- 79 -->
<g id="node80" class="node">
<title>79</title>
<ellipse fill="none" stroke="#000000" cx="621" cy="-954" rx="27" ry="18"/>
<text text-anchor="middle" x="621" y="-949.8" font-family="Times,serif" font-size="14.00" fill="#000000">Ɛ</text>
</g>
<!-- 78&#45;&gt;79 -->
<g id="edge76" class="edge">
<title>78-&gt;79</title>
<path fill="none" stroke="#000000" d="M621,-1007.8314C621,-1000.131 621,-990.9743 621,-982.4166"/>
<polygon fill="#000000" stroke="#000000" points="624.5001,-982.4132 621,-972.4133 617.5001,-982.4133 624.5001,-982.4132"/>
</g>
<!-- 81 -->
<g id="node82" class="node">
<title>81</title>
<ellipse fill="none" stroke="#000000" cx="693" cy="-1026" rx="27" ry="18"/>
<text text-anchor="middle" x="693" y="-1021.8" font-family="Times,serif" font-size="14.00" fill="#000000">Ɛ</text>
</g>
<!-- 80&#45;&gt;81 -->
<g id="edge79" class="edge">
<title>80-&gt;81</title>
<path fill="none" stroke="#000000" d="M693,-1079.8314C693,-1072.131 693,-1062.9743 693,-1054.4166"/>
<polygon fill="#000000" stroke="#000000" points="696.5001,-1054.4132 693,-1044.4133 689.5001,-1054.4133 696.5001,-1054.4132"/>
</g>
</g>
</svg>