<?xml version="1.0" encoding="UTF-8" standalone="no"?>
<!DOCTYPE svg PUBLIC "-//W3C//DTD SVG 1.1//EN" "http://www.w3.org/Graphics/SVG/1.1/DTD/svg11.dtd">
<!-- Generated by graphviz version 2.40.1 (20161225.0304)
 -->
<!-- Title: %0 Pages: 1 -->
<svg width="710pt" height="476pt" viewBox="0.00 0.00 710.00 476.00" xmlns="http://www.w3.org/2000/svg" xmlns:xlink="http://www.w3.org/1999/xlink">
<g id="graph0" class="graph" transform="scale(1 1) rotate(0) translate(4 472)">
<title>%0</title>
<polygon fill="#ffffff" stroke="transparent" points="-4,4 -4,-472 706,-472 706,4 -4,4"/>
<!-- 0 -->
<g id="node1" class="node">
<title>0</title>
<ellipse fill="none" stroke="#000000" cx="135" cy="-450" rx="27" ry="18"/>
<text text-anchor="middle" x="135" y="-445.8" font-family="Times,serif" font-size="14.00" fill="#000000">E</text>
</g>
<!-- 1 -->
<g id="node2" class="node">
<title>1</title>
<ellipse fill="none" stroke="#000000" cx="99" cy="-378" rx="27" ry="18"/>
<text text-anchor="middle" x="99" y="-373.8" font-family="Times,serif" font-size="14.00" fill="#000000">C</text>
</g>
<!-- 0&#45;&gt;1 -->
<g id="edge5" class="edge">
<title>0-&gt;1</title>
<path fill="none" stroke="#000000" d="M126.2854,-432.5708C122.0403,-424.0807 116.8464,-413.6929 112.1337,-404.2674"/>
<polygon fill="#000000" stroke="#000000" points="115.237,-402.6477 107.6343,-395.2687 108.976,-405.7782 115.237,-402.6477"/>
</g>
<!-- 6 -->
<g id="node7" class="node">
<title>6</title>
<ellipse fill="none" stroke="#000000" cx="207" cy="-378" rx="27" ry="18"/>
<text text-anchor="middle" x="207" y="-373.8" font-family="Times,serif" font-size="14.00" fill="#000000">E'</text>
</g>
<!-- 0&#45;&gt;6 -->
<g id="edge32" class="edge">
<title>0-&gt;6</title>
<path fill="none" stroke="#000000" d="M150.2693,-434.7307C160.197,-424.803 173.3153,-411.6847 184.4363,-400.5637"/>
<polygon fill="#000000" stroke="#000000" points="187.1564,-402.7933 191.7527,-393.2473 182.2067,-397.8436 187.1564,-402.7933"/>
</g>
<!-- 2 -->
<g id="node3" class="node">
<title>2</title>
<ellipse fill="none" stroke="#000000" cx="27" cy="-306" rx="27" ry="18"/>
<text text-anchor="middle" x="27" y="-301.8" font-family="Times,serif" font-size="14.00" fill="#000000">N</text>
</g>
<!-- 1&#45;&gt;2 -->
<g id="edge2" class="edge">
<title>1-&gt;2</title>
<path fill="none" stroke="#000000" d="M83.7307,-362.7307C73.803,-352.803 60.6847,-339.6847 49.5637,-328.5637"/>
<polygon fill="#000000" stroke="#000000" points="51.7933,-325.8436 42.2473,-321.2473 46.8436,-330.7933 51.7933,-325.8436"/>
</g>
<!-- 4 -->
<g id="node5" class="node">
<title>4</title>
<ellipse fill="none" stroke="#000000" cx="99" cy="-306" rx="27" ry="18"/>
<text text-anchor="middle" x="99" y="-301.8" font-family="Times,serif" font-size="14.00" fill="#000000">C'</text>
</g>
<!-- 1&#45;&gt;4 -->
<g id="edge4" class="edge">
<title>1-&gt;4</title>
<path fill="none" stroke="#000000" d="M99,-359.8314C99,-352.131 99,-342.9743 99,-334.4166"/>
<polygon fill="#000000" stroke="#000000" points="102.5001,-334.4132 99,-324.4133 95.5001,-334.4133 102.5001,-334.4132"/>
</g>
<!-- 3 -->
<g id="node4" class="node">
<title>3</title>
<ellipse fill="none" stroke="#000000" cx="27" cy="-234" rx="27" ry="18"/>
<text text-anchor="middle" x="27" y="-229.8" font-family="Times,serif" font-size="14.00" fill="#000000">a</text>
</g>
<!-- 2&#45;&gt;3 -->
<g id="edge1" class="edge">
<title>2-&gt;3</title>
<path fill="none" stroke="#000000" d="M27,-287.8314C27,-280.131 27,-270.9743 27,-262.4166"/>
<polygon fill="#000000" stroke="#000000" points="30.5001,-262.4132 27,-252.4133 23.5001,-262.4133 30.5001,-262.4132"/>
</g>
<!-- 5 -->
<g id="node6" class="node">
<title>5</title>
<ellipse fill="none" stroke="#000000" cx="99" cy="-234" rx="27" ry="18"/>
<text text-anchor="middle" x="99" y="-229.8" font-family="Times,serif" font-size="14.00" fill="#000000">Ɛ</text>
</g>
<!-- 4&#45;&gt;5 -->
<g id="edge3" class="edge">
<title>4-&gt;5</title>
<path fill="none" stroke="#000000" d="M99,-287.8314C99,-280.131 99,-270.9743 99,-262.4166"/>
<polygon fill="#000000" stroke="#000000" points="102.5001,-262.4132 99,-252.4133 95.5001,-262.4133 102.5001,-262.4132"/>
</g>
<!-- 7 -->
<g id="node8" class="node">
<title>7</title>
<ellipse fill="none" stroke="#000000" cx="171" cy="-306" rx="27" ry="18"/>
<text text-anchor="middle" x="171" y="-301.8" font-family="Times,serif" font-size="14.00" fill="#000000">or</text>
</g>
<!-- 6&#45;&gt;7 -->
<g id="edge6" class="edge">
<title>6-&gt;7</title>
<path fill="none" stroke="#000000" d="M198.2854,-360.5708C194.0403,-352.0807 188.8464,-341.6929 184.1337,-332.2674"/>
<polygon fill="#000000" stroke="#000000" points="187.237,-330.6477 179.6343,-323.2687 180.976,-333.7782 187.237,-330.6477"/>
</g>
<!-- 8 -->
<g id="node9" class="node">
<title>8</title>
<ellipse fill="none" stroke="#000000" cx="243" cy="-306" rx="27" ry="18"/>
<text text-anchor="middle" x="243" y="-301.8" font-family="Times,serif" font-size="14.00" fill="#000000">C</text>
</g>
<!-- 6&#45;&gt;8 -->
<g id="edge11" class="edge">
<title>6-&gt;8</title>
<path fill="none" stroke="#000000" d="M215.7146,-360.5708C219.9597,-352.0807 225.1536,-341.6929 229.8663,-332.2674"/>
<polygon fill="#000000" stroke="#000000" points="233.024,-333.7782 234.3657,-323.2687 226.763,-330.6477 233.024,-333.7782"/>
</g>
<!-- 13 -->
<g id="node14" class="node">
<title>13</title>
<ellipse fill="none" stroke="#000000" cx="351" cy="-306" rx="27" ry="18"/>
<text text-anchor="middle" x="351" y="-301.8" font-family="Times,serif" font-size="14.00" fill="#000000">E'</text>
</g>
<!-- 6&#45;&gt;13 -->
<g id="edge31" class="edge">
<title>6-&gt;13</title>
<path fill="none" stroke="#000000" d="M228.8705,-367.0647C253.2222,-354.8889 292.762,-335.119 320.2285,-321.3858"/>
<polygon fill="#000000" stroke="#000000" points="322.0165,-324.4049 329.3955,-316.8022 318.886,-318.1439 322.0165,-324.4049"/>
</g>
<!-- 9 -->
<g id="node10" class="node">
<title>9</title>
<ellipse fill="none" stroke="#000000" cx="171" cy="-234" rx="27" ry="18"/>
<text text-anchor="middle" x="171" y="-229.8" font-family="Times,serif" font-size="14.00" fill="#000000">N</text>
</g>
<!-- 8&#45;&gt;9 -->
<g id="edge8" class="edge">
<title>8-&gt;9</title>
<path fill="none" stroke="#000000" d="M227.7307,-290.7307C217.803,-280.803 204.6847,-267.6847 193.5637,-256.5637"/>
<polygon fill="#000000" stroke="#000000" points="195.7933,-253.8436 186.2473,-249.2473 190.8436,-258.7933 195.7933,-253.8436"/>
</g>
<!-- 11 -->
<g id="node12" class="node">
<title>11</title>
<ellipse fill="none" stroke="#000000" cx="243" cy="-234" rx="27" ry="18"/>
<text text-anchor="middle" x="243" y="-229.8" font-family="Times,serif" font-size="14.00" fill="#000000">C'</text>
</g>
<!-- 8&#45;&gt;11 -->
<g id="edge10" class="edge">
<title>8-&gt;11</title>
<path fill="none" stroke="#000000" d="M243,-287.8314C243,-280.131 243,-270.9743 243,-262.4166"/>
<polygon fill="#000000" stroke="#000000" points="246.5001,-262.4132 243,-252.4133 239.5001,-262.4133 246.5001,-262.4132"/>
</g>
<!-- 10 -->
<g id="node11" class="node">
<title>10</title>
<ellipse fill="none" stroke="#000000" cx="171" cy="-162" rx="27" ry="18"/>
<text text-anchor="middle" x="171" y="-157.8" font-family="Times,serif" font-size="14.00" fill="#000000">b</text>
</g>
<!-- 9&#45;&gt;10 -->
<g id="edge7" class="edge">
<title>9-&gt;10</title>
<path fill="none" stroke="#000000" d="M171,-215.8314C171,-208.131 171,-198.9743 171,-190.4166"/>
<polygon fill="#000000" stroke="#000000" points="174.5001,-190.4132 171,-180.4133 167.5001,-190.4133 174.5001,-190.4132"/>
</g>
<!-- 12 -->
<g id="node13" class="node">
<title>12</title>
<ellipse fill="none" stroke="#000000" cx="243" cy="-162" rx="27" ry="18"/>
<text text-anchor="middle" x="243" y="-157.8" font-family="Times,serif" font-size="14.00" fill="#000000">Ɛ</text>
</g>
<!-- 11&#45;&gt;12 -->
<g id="edge9" class="edge">
<title>11-&gt;12</title>
<path fill="none" stroke="#000000" d="M243,-215.8314C243,-208.131 243,-198.9743 243,-190.4166"/>
<polygon fill="#000000" stroke="#000000" points="246.5001,-190.4132 243,-180.4133 239.5001,-190.4133 246.5001,-190.4132"/>
</g>
<!-- 14 -->
<g id="node15" class="node">
<title>14</title>
<ellipse fill="none" stroke="#000000" cx="315" cy="-234" rx="27" ry="18"/>
<text text-anchor="middle" x="315" y="-229.8" font-family="Times,serif" font-size="14.00" fill="#000000">xor</text>
</g>
<!-- 13&#45;&gt;14 -->
<g id="edge12" class="edge">
<title>13-&gt;14</title>
<path fill="none" stroke="#000000" d="M342.2854,-288.5708C338.0403,-280.0807 332.8464,-269.6929 328.1337,-260.2674"/>
<polygon fill="#000000" stroke="#000000" points="331.237,-258.6477 323.6343,-251.2687 324.976,-261.7782 331.237,-258.6477"/>
</g>
<!-- 15 -->
<g id="node16" class="node">
<title>15</title>
<ellipse fill="none" stroke="#000000" cx="387" cy="-234" rx="27" ry="18"/>
<text text-anchor="middle" x="387" y="-229.8" font-family="Times,serif" font-size="14.00" fill="#000000">C</text>
</g>
<!-- 13&#45;&gt;15 -->
<g id="edge21" class="edge">
<title>13-&gt;15</title>
<path fill="none" stroke="#000000" d="M359.7146,-288.5708C363.9597,-280.0807 369.1536,-269.6929 373.8663,-260.2674"/>
<polygon fill="#000000" stroke="#000000" points="377.024,-261.7782 378.3657,-251.2687 370.763,-258.6477 377.024,-261.7782"/>
</g>
<!-- 24 -->
<g id="node25" class="node">
<title>24</title>
<ellipse fill="none" stroke="#000000" cx="513" cy="-234" rx="27" ry="18"/>
<text text-anchor="middle" x="513" y="-229.8" font-family="Times,serif" font-size="14.00" fill="#000000">E'</text>
</g>
<!-- 13&#45;&gt;24 -->
<g id="edge30" class="edge">
<title>13-&gt;24</title>
<path fill="none" stroke="#000000" d="M373.5254,-295.9887C401.4956,-283.5575 449.3843,-262.2736 481.1162,-248.1706"/>
<polygon fill="#000000" stroke="#000000" points="482.6887,-251.3019 490.4054,-244.0421 479.8457,-244.9052 482.6887,-251.3019"/>
</g>
<!-- 16 -->
<g id="node17" class="node">
<title>16</title>
<ellipse fill="none" stroke="#000000" cx="315" cy="-162" rx="27" ry="18"/>
<text text-anchor="middle" x="315" y="-157.8" font-family="Times,serif" font-size="14.00" fill="#000000">N</text>
</g>
<!-- 15&#45;&gt;16 -->
<g id="edge14" class="edge">
<title>15-&gt;16</title>
<path fill="none" stroke="#000000" d="M371.7307,-218.7307C361.803,-208.803 348.6847,-195.6847 337.5637,-184.5637"/>
<polygon fill="#000000" stroke="#000000" points="339.7933,-181.8436 330.2473,-177.2473 334.8436,-186.7933 339.7933,-181.8436"/>
</g>
<!-- 18 -->
<g id="node19" class="node">
<title>18</title>
<ellipse fill="none" stroke="#000000" cx="387" cy="-162" rx="27" ry="18"/>
<text text-anchor="middle" x="387" y="-157.8" font-family="Times,serif" font-size="14.00" fill="#000000">C'</text>
</g>
<!-- 15&#45;&gt;18 -->
<g id="edge20" class="edge">
<title>15-&gt;18</title>
<path fill="none" stroke="#000000" d="M387,-215.8314C387,-208.131 387,-198.9743 387,-190.4166"/>
<polygon fill="#000000" stroke="#000000" points="390.5001,-190.4132 387,-180.4133 383.5001,-190.4133 390.5001,-190.4132"/>
</g>
<!-- 17 -->
<g id="node18" class="node">
<title>17</title>
<ellipse fill="none" stroke="#000000" cx="243" cy="-90" rx="27" ry="18"/>
<text text-anchor="middle" x="243" y="-85.8" font-family="Times,serif" font-size="14.00" fill="#000000">t</text>
</g>
<!-- 16&#45;&gt;17 -->
<g id="edge13" class="edge">
<title>16-&gt;17</title>
<path fill="none" stroke="#000000" d="M299.7307,-146.7307C289.803,-136.803 276.6847,-123.6847 265.5637,-112.5637"/>
<polygon fill="#000000" stroke="#000000" points="267.7933,-109.8436 258.2473,-105.2473 262.8436,-114.7933 267.7933,-109.8436"/>
</g>
<!-- 19 -->
<g id="node20" class="node">
<title>19</title>
<ellipse fill="none" stroke="#000000" cx="315" cy="-90" rx="27" ry="18"/>
<text text-anchor="middle" x="315" y="-85.8" font-family="Times,serif" font-size="14.00" fill="#000000">and</text>
</g>
<!-- 18&#45;&gt;19 -->
<g id="edge15" class="edge">
<title>18-&gt;19</title>
<path fill="none" stroke="#000000" d="M371.7307,-146.7307C361.803,-136.803 348.6847,-123.6847 337.5637,-112.5637"/>
<polygon fill="#000000" stroke="#000000" points="339.7933,-109.8436 330.2473,-105.2473 334.8436,-114.7933 339.7933,-109.8436"/>
</g>
<!-- 20 -->
<g id="node21" class="node">
<title>20</title>
<ellipse fill="none" stroke="#000000" cx="387" cy="-90" rx="27" ry="18"/>
<text text-anchor="middle" x="387" y="-85.8" font-family="Times,serif" font-size="14.00" fill="#000000">N</text>
</g>
<!-- 18&#45;&gt;20 -->
<g id="edge17" class="edge">
<title>18-&gt;20</title>
<path fill="none" stroke="#000000" d="M387,-143.8314C387,-136.131 387,-126.9743 387,-118.4166"/>
<polygon fill="#000000" stroke="#000000" points="390.5001,-118.4132 387,-108.4133 383.5001,-118.4133 390.5001,-118.4132"/>
</g>
<!-- 22 -->
<g id="node23" class="node">
<title>22</title>
<ellipse fill="none" stroke="#000000" cx="459" cy="-90" rx="27" ry="18"/>
<text text-anchor="middle" x="459" y="-85.8" font-family="Times,serif" font-size="14.00" fill="#000000">C'</text>
</g>
<!-- 18&#45;&gt;22 -->
<g id="edge19" class="edge">
<title>18-&gt;22</title>
<path fill="none" stroke="#000000" d="M402.2693,-146.7307C412.197,-136.803 425.3153,-123.6847 436.4363,-112.5637"/>
<polygon fill="#000000" stroke="#000000" points="439.1564,-114.7933 443.7527,-105.2473 434.2067,-109.8436 439.1564,-114.7933"/>
</g>
<!-- 21 -->
<g id="node22" class="node">
<title>21</title>
<ellipse fill="none" stroke="#000000" cx="387" cy="-18" rx="27" ry="18"/>
<text text-anchor="middle" x="387" y="-13.8" font-family="Times,serif" font-size="14.00" fill="#000000">c</text>
</g>
<!-- 20&#45;&gt;21 -->
<g id="edge16" class="edge">
<title>20-&gt;21</title>
<path fill="none" stroke="#000000" d="M387,-71.8314C387,-64.131 387,-54.9743 387,-46.4166"/>
<polygon fill="#000000" stroke="#000000" points="390.5001,-46.4132 387,-36.4133 383.5001,-46.4133 390.5001,-46.4132"/>
</g>
<!-- 23 -->
<g id="node24" class="node">
<title>23</title>
<ellipse fill="none" stroke="#000000" cx="459" cy="-18" rx="27" ry="18"/>
<text text-anchor="middle" x="459" y="-13.8" font-family="Times,serif" font-size="14.00" fill="#000000">Ɛ</text>
</g>
<!-- 22&#45;&gt;23 -->
<g id="edge18" class="edge">
<title>22-&gt;23</title>
<path fill="none" stroke="#000000" d="M459,-71.8314C459,-64.131 459,-54.9743 459,-46.4166"/>
<polygon fill="#000000" stroke="#000000" points="462.5001,-46.4132 459,-36.4133 455.5001,-46.4133 462.5001,-46.4132"/>
</g>
<!-- 25 -->
<g id="node26" class="node">
<title>25</title>
<ellipse fill="none" stroke="#000000" cx="477" cy="-162" rx="27" ry="18"/>
<text text-anchor="middle" x="477" y="-157.8" font-family="Times,serif" font-size="14.00" fill="#000000">or</text>
</g>
<!-- 24&#45;&gt;25 -->
<g id="edge22" class="edge">
<title>24-&gt;25</title>
<path fill="none" stroke="#000000" d="M504.2854,-216.5708C500.0403,-208.0807 494.8464,-197.6929 490.1337,-188.2674"/>
<polygon fill="#000000" stroke="#000000" points="493.237,-186.6477 485.6343,-179.2687 486.976,-189.7782 493.237,-186.6477"/>
</g>
<!-- 26 -->
<g id="node27" class="node">
<title>26</title>
<ellipse fill="none" stroke="#000000" cx="549" cy="-162" rx="27" ry="18"/>
<text text-anchor="middle" x="549" y="-157.8" font-family="Times,serif" font-size="14.00" fill="#000000">C</text>
</g>
<!-- 24&#45;&gt;26 -->
<g id="edge27" class="edge">
<title>24-&gt;26</title>
<path fill="none" stroke="#000000" d="M521.7146,-216.5708C525.9597,-208.0807 531.1536,-197.6929 535.8663,-188.2674"/>
<polygon fill="#000000" stroke="#000000" points="539.024,-189.7782 540.3657,-179.2687 532.763,-186.6477 539.024,-189.7782"/>
</g>
<!-- 31 -->
<g id="node32" class="node">
<title>31</title>
<ellipse fill="none" stroke="#000000" cx="657" cy="-162" rx="27" ry="18"/>
<text text-anchor="middle" x="657" y="-157.8" font-family="Times,serif" font-size="14.00" fill="#000000">E'</text>
</g>
<!-- 24&#45;&gt;31 -->
<g id="edge29" class="edge">
<title>24-&gt;31</title>
<path fill="none" stroke="#000000" d="M534.8705,-223.0647C559.2222,-210.8889 598.762,-191.119 626.2285,-177.3858"/>
<polygon fill="#000000" stroke="#000000" points="628.0165,-180.4049 635.3955,-172.8022 624.886,-174.1439 628.0165,-180.4049"/>
</g>
<!-- 27 -->
<g id="node28" class="node">
<title>27</title>
<ellipse fill="none" stroke="#000000" cx="531" cy="-90" rx="27" ry="18"/>
<text text-anchor="middle" x="531" y="-85.8" font-family="Times,serif" font-size="14.00" fill="#000000">N</text>
</g>
<!-- 26&#45;&gt;27 -->
<g id="edge24" class="edge">
<title>26-&gt;27</title>
<path fill="none" stroke="#000000" d="M544.5506,-144.2022C542.5602,-136.2406 540.1668,-126.6671 537.9489,-117.7957"/>
<polygon fill="#000000" stroke="#000000" points="541.2816,-116.6951 535.4606,-107.8425 534.4906,-118.3929 541.2816,-116.6951"/>
</g>
<!-- 29 -->
<g id="node30" class="node">
<title>29</title>
<ellipse fill="none" stroke="#000000" cx="603" cy="-90" rx="27" ry="18"/>
<text text-anchor="middle" x="603" y="-85.8" font-family="Times,serif" font-size="14.00" fill="#000000">C'</text>
</g>
<!-- 26&#45;&gt;29 -->
<g id="edge26" class="edge">
<title>26-&gt;29</title>
<path fill="none" stroke="#000000" d="M561.2534,-145.6621C568.1577,-136.4564 576.9177,-124.7764 584.6285,-114.4953"/>
<polygon fill="#000000" stroke="#000000" points="587.595,-116.3733 590.7951,-106.2733 581.995,-112.1733 587.595,-116.3733"/>
</g>
<!-- 28 -->
<g id="node29" class="node">
<title>28</title>
<ellipse fill="none" stroke="#000000" cx="531" cy="-18" rx="27" ry="18"/>
<text text-anchor="middle" x="531" y="-13.8" font-family="Times,serif" font-size="14.00" fill="#000000">d</text>
</g>
<!-- 27&#45;&gt;28 -->
<g id="edge23" class="edge">
<title>27-&gt;28</title>
<path fill="none" stroke="#000000" d="M531,-71.8314C531,-64.131 531,-54.9743 531,-46.4166"/>
<polygon fill="#000000" stroke="#000000" points="534.5001,-46.4132 531,-36.4133 527.5001,-46.4133 534.5001,-46.4132"/>
</g>
<!-- 30 -->
<g id="node31" class="node">
<title>30</title>
<ellipse fill="none" stroke="#000000" cx="603" cy="-18" rx="27" ry="18"/>
<text text-anchor="middle" x="603" y="-13.8" font-family="Times,serif" font-size="14.00" fill="#000000">Ɛ</text>
</g>
<!-- 29&#45;&gt;30 -->
<g id="edge25" class="edge">
<title>29-&gt;30</title>
<path fill="none" stroke="#000000" d="M603,-71.8314C603,-64.131 603,-54.9743 603,-46.4166"/>
<polygon fill="#000000" stroke="#000000" points="606.5001,-46.4132 603,-36.4133 599.5001,-46.4133 606.5001,-46.4132"/>
</g>
<!-- 32 -->
<g id="node33" class="node">
<title>32</title>
<ellipse fill="none" stroke="#000000" cx="675" cy="-90" rx="27" ry="18"/>
<text text-anchor="middle" x="675" y="-85.8" font-family="Times,serif" font-size="14.00" fill="#000000">Ɛ</text>
</g>
<!-- 31&#45;&gt;32 -->
<g id="edge28" class="edge">
<title>31-&gt;32</title>
<path fill="none" stroke="#000000" d="M661.4494,-144.2022C663.4398,-136.2406 665.8332,-126.6671 668.0511,-117.7957"/>
<polygon fill="#000000" stroke="#000000" points="671.5094,-118.3929 670.5394,-107.8425 664.7184,-116.6951 671.5094,-118.3929"/>
</g>
</g>
</svg>